<?xml version="1.0" encoding="iso-8859-1"?>
<!-- Uploaded to: SVG Repo, www.svgrepo.com, Generator: SVG Repo Mixer Tools -->
<svg version="1.1" id="Layer_1" xmlns="http://www.w3.org/2000/svg" xmlns:xlink="http://www.w3.org/1999/xlink" 
	 viewBox="0 0 512.001 512.001" xml:space="preserve">
<rect x="109.723" y="77.135" style="fill:#B7364A;" width="292.564" height="427.26"/>
<circle style="fill:#386499;" cx="256.005" cy="290.77" r="69.097"/>
<path style="fill:#F6E088;" d="M371.656,38.622c-0.266,0-0.529,0.012-0.794,0.019c0-0.007,0-0.013,0-0.019
	c0-17.133-13.887-31.02-31.018-31.02c-13.891,0-25.648,9.131-29.599,21.718c-5.389-4.52-12.334-7.246-19.919-7.246
	c-11.568,0-21.648,6.336-26.981,15.723c-5.333-9.387-15.415-15.723-26.981-15.723c-14.868,0-27.287,10.461-30.31,24.425
	c-5.485-4.898-12.718-7.877-20.65-7.877c-5.196,0-10.09,1.284-14.393,3.543c-2.256-14.912-15.126-26.339-30.666-26.339
	c-17.131,0-31.019,13.888-31.019,31.019V77.14h11.708h41.496h240.105c0.025-0.512,0.04-6.981,0.04-7.498
	C402.675,52.508,388.788,38.622,371.656,38.622z"/>
<path style="fill:#491E17;" d="M410.277,69.64c0-19.202-14.087-35.175-32.468-38.13C374.462,13.599,358.711,0,339.845,0
	c-13.669,0-25.941,7.057-32.849,18.261c-5.17-2.473-10.87-3.788-16.671-3.788c-10.196,0-19.855,4.056-26.981,11.006
	c-7.126-6.949-16.785-11.006-26.981-11.006c-14.423,0-27.455,8.167-34.058,20.44c-5.222-2.544-10.991-3.893-16.903-3.893
	c-3.15,0-6.294,0.391-9.344,1.151c-5.86-14.123-19.908-23.948-35.715-23.948c-21.296,0-38.621,17.325-38.621,38.621v37.897h0.391
	v427.259h307.77V84.469l0.343-6.956C410.27,76.681,410.277,69.709,410.277,69.64z M116.929,46.843
	c0-12.911,10.505-23.417,23.417-23.417c11.483,0,21.435,8.545,23.149,19.875l1.597,10.556l9.453-4.963
	c3.376-1.773,7.03-2.672,10.859-2.672c5.758,0,11.293,2.111,15.586,5.945l9.733,8.691l2.761-12.752
	c2.313-10.679,11.935-18.431,22.88-18.431c8.404,0,16.209,4.55,20.371,11.876l6.61,11.635l6.61-11.635
	c4.162-7.325,11.967-11.876,20.371-11.876c5.491,0,10.83,1.942,15.035,5.469l8.726,7.318l3.412-10.867
	c3.079-9.803,12.06-16.391,22.348-16.391c12.865,0,23.34,10.43,23.416,23.278v7.962l8.396-0.221
	c12.878,0,23.36,10.449,23.417,23.313H116.929V46.843z M248.399,84.741v129.704c-12.26,1.212-23.67,5.337-33.556,11.649V84.741
	H248.399z M297.16,226.093c-9.886-6.314-21.297-10.437-33.557-11.649V84.741h33.557V226.093z M256.001,229.268
	c33.911,0,61.5,27.589,61.5,61.5c0,33.912-27.589,61.501-61.5,61.501c-33.912,0-61.501-27.589-61.501-61.501
	C194.501,256.857,222.09,229.268,256.001,229.268z M214.842,355.444c9.886,6.314,21.296,10.437,33.556,11.649v129.703h-33.556
	V355.444z M263.603,367.094c12.261-1.211,23.673-5.337,33.557-11.65v141.353h-33.557V367.094z M312.364,342.726
	c12.616-13.675,20.341-31.928,20.341-51.958c0-20.03-7.725-38.282-20.341-51.957V84.741h33.557v412.056h-33.557V342.726z
	 M117.32,84.741h33.557v331.408h15.204V84.741h33.557v154.07c-12.616,13.675-20.342,31.928-20.342,51.958
	c0,20.03,7.726,38.281,20.342,51.958v154.07h-33.557v-60.374h-15.204v60.374H117.32C117.32,496.797,117.32,84.741,117.32,84.741z
	 M394.682,496.796h-33.557V84.741h33.557V496.796z"/>
</svg>