<?xml version="1.0" encoding="iso-8859-1"?>
<!-- Uploaded to: SVG Repo, www.svgrepo.com, Generator: SVG Repo Mixer Tools -->
<!DOCTYPE svg PUBLIC "-//W3C//DTD SVG 1.1//EN" "http://www.w3.org/Graphics/SVG/1.1/DTD/svg11.dtd">
<svg height="800px" width="800px" version="1.1" id="Capa_1" xmlns="http://www.w3.org/2000/svg" xmlns:xlink="http://www.w3.org/1999/xlink" 
	 viewBox="0 0 297.5 297.5" xml:space="preserve">
<g>
	<g id="XMLID_41_">
		<g>
			<path style="fill:#D75E29;" d="M27.685,176.02h242.12c-19.29,49.261-67.319,82.65-121.06,82.65
				C95.005,258.67,46.975,225.28,27.685,176.02z"/>
			<path d="M291.525,160.04c1.88,2.48,2.5,5.691,1.67,8.691c-16.21,58.48-66.33,101.01-125.41,108.619h102.189
				c5.5,0,9.95,4.45,9.95,9.95c0,5.49-4.45,9.95-9.95,9.95H27.515c-5.489,0-9.949-4.46-9.949-9.95c0-5.5,4.46-9.95,9.949-9.95
				h102.19c-59.08-7.609-109.2-50.14-125.4-108.619c-0.83-3-0.21-6.211,1.67-8.691c1.881-2.47,4.81-3.92,7.921-3.92h269.71
				C286.705,156.12,289.635,157.57,291.525,160.04z M269.805,176.02H27.685c19.29,49.261,67.32,82.65,121.061,82.65
				C202.485,258.67,250.515,225.28,269.805,176.02z"/>
			<path d="M227.975,44.84v69.271c0,5.5-4.46,9.96-9.949,9.96c-5.5,0-9.96-4.46-9.96-9.96V44.84c0-5.5,4.46-9.95,9.96-9.95
				C223.515,34.89,227.975,39.34,227.975,44.84z"/>
			<path d="M158.705,10.2v69.28c0,5.489-4.46,9.949-9.96,9.949c-5.49,0-9.95-4.46-9.95-9.949V10.2c0-5.49,4.46-9.95,9.95-9.95
				C154.245,0.25,158.705,4.71,158.705,10.2z"/>
			<path d="M89.425,44.84v69.271c0,5.5-4.46,9.96-9.95,9.96c-5.5,0-9.949-4.46-9.949-9.96V44.84c0-5.5,4.449-9.95,9.949-9.95
				C84.965,34.89,89.425,39.34,89.425,44.84z"/>
		</g>
		<g>
		</g>
	</g>
</g>
</svg>