<?xml version="1.0" encoding="iso-8859-1"?>
<!-- Uploaded to: SVG Repo, www.svgrepo.com, Generator: SVG Repo Mixer Tools -->
<svg version="1.1" id="Layer_1" xmlns="http://www.w3.org/2000/svg" xmlns:xlink="http://www.w3.org/1999/xlink" 
	 viewBox="0 0 512 512" xml:space="preserve">
<path style="fill:#509ED9;" d="M453.843,386.414c5.209-18.105,8.005-37.234,8.005-57.015c0-113.687-92.161-205.85-205.85-205.85
	S50.15,215.711,50.15,329.397c0,19.781,2.798,38.909,8.005,57.015h395.687V386.414z"/>
<path d="M98.758,351.482c-0.873,0-1.76-0.093-2.62-0.267c-0.86-0.175-1.707-0.43-2.513-0.766c-0.82-0.336-1.599-0.753-2.325-1.236
	c-0.726-0.497-1.424-1.062-2.043-1.68c-0.618-0.618-1.183-1.304-1.666-2.044c-0.484-0.726-0.9-1.504-1.236-2.311
	c-0.336-0.82-0.591-1.652-0.766-2.513c-0.175-0.872-0.269-1.76-0.269-2.634c0-0.872,0.094-1.76,0.269-2.62
	c0.175-0.86,0.43-1.707,0.766-2.512c0.336-0.82,0.753-1.599,1.236-2.325c0.484-0.739,1.048-1.424,1.666-2.043
	c0.618-0.62,1.317-1.184,2.043-1.666c0.726-0.484,1.505-0.9,2.325-1.236c0.806-0.336,1.653-0.591,2.513-0.766
	c1.734-0.349,3.521-0.349,5.254,0c0.847,0.175,1.693,0.43,2.513,0.766c0.806,0.336,1.586,0.753,2.311,1.236
	c0.739,0.482,1.424,1.047,2.043,1.666c0.632,0.618,1.183,1.304,1.68,2.043c0.484,0.726,0.9,1.505,1.236,2.325
	c0.336,0.806,0.591,1.652,0.766,2.512c0.175,0.861,0.255,1.748,0.255,2.62c0,0.873-0.081,1.762-0.255,2.634
	c-0.175,0.861-0.43,1.693-0.766,2.513c-0.336,0.808-0.753,1.586-1.236,2.311c-0.497,0.74-1.048,1.426-1.68,2.044
	c-0.618,0.618-1.304,1.183-2.043,1.68c-0.726,0.484-1.505,0.9-2.311,1.236c-0.82,0.336-1.666,0.591-2.513,0.766
	C100.519,351.389,99.632,351.482,98.758,351.482z"/>
<rect x="38.747" y="386.419" style="fill:#074761;" width="434.501" height="57.594"/>
<path d="M256,158.489c-68.311,0-129.953,40.615-157.04,103.47c-4.413,10.24-7.826,20.96-10.143,31.86
	c-1.543,7.258,3.091,14.395,10.35,15.938c0.943,0.2,1.881,0.297,2.807,0.297c6.21,0,11.788-4.33,13.131-10.647
	c1.95-9.172,4.822-18.191,8.537-26.809c22.836-52.991,74.79-87.231,132.358-87.231c7.422,0,13.438-6.018,13.438-13.438
	S263.422,158.489,256,158.489z"/>
<path d="M498.562,372.974h-25.308h-2.334c2.884-14.293,4.369-28.884,4.369-43.576c0-116.403-91.17-211.895-205.85-218.863V81.431
	h24.189c7.422,0,13.438-6.018,13.438-13.438s-6.016-13.438-13.438-13.438h-75.255c-7.422,0-13.438,6.018-13.438,13.438
	s6.016,13.438,13.438,13.438h24.189v29.103c-114.68,6.969-205.85,102.462-205.85,218.865c0,14.692,1.485,29.283,4.369,43.576h-2.334
	H13.438C6.016,372.975,0,378.993,0,386.414s6.016,13.438,13.438,13.438h11.87v44.156c0,7.421,6.016,13.438,13.438,13.438h434.505
	c7.422,0,13.438-6.018,13.438-13.438v-44.156h11.871c7.422,0,13.438-6.018,13.438-13.438S505.984,372.974,498.562,372.974z
	 M63.589,329.399c0-106.096,86.314-192.411,192.411-192.411s192.411,86.314,192.411,192.411c0,14.731-1.666,29.347-4.96,43.576
	H68.549C65.255,358.745,63.589,344.13,63.589,329.399z M459.815,430.569H52.185v-30.717h5.971h395.686h5.971v30.717H459.815z"/>
</svg>